<svg width="84" height="16" viewBox="0 0 84 16" fill="none" xmlns="http://www.w3.org/2000/svg">
<mask id="path-1-outside-1_10_393" maskUnits="userSpaceOnUse" x="-1" y="-1" width="86" height="18" fill="black">
<rect fill="white" x="-1" y="-1" width="86" height="18"/>
<path d="M12.166 7.73438V13.1641C11.9642 13.431 11.6484 13.724 11.2188 14.043C10.7956 14.3555 10.2324 14.6257 9.5293 14.8535C8.82617 15.0814 7.95052 15.1953 6.90234 15.1953C6.01042 15.1953 5.19336 15.0456 4.45117 14.7461C3.70898 14.4401 3.06771 13.9941 2.52734 13.4082C1.99349 12.8223 1.58008 12.1094 1.28711 11.2695C0.994141 10.4232 0.847656 9.45964 0.847656 8.37891V7.39258C0.847656 6.31836 0.98112 5.36133 1.24805 4.52148C1.52148 3.67513 1.91211 2.95898 2.41992 2.37305C2.92773 1.78711 3.53971 1.3444 4.25586 1.04492C4.97852 0.738932 5.79557 0.585938 6.70703 0.585938C7.8724 0.585938 8.83594 0.78125 9.59766 1.17188C10.3659 1.55599 10.9583 2.08984 11.375 2.77344C11.7917 3.45703 12.0553 4.23828 12.166 5.11719H9.76367C9.68555 4.6224 9.53255 4.17969 9.30469 3.78906C9.08333 3.39844 8.76432 3.09245 8.34766 2.87109C7.9375 2.64323 7.40365 2.5293 6.74609 2.5293C6.17969 2.5293 5.68164 2.63672 5.25195 2.85156C4.82227 3.06641 4.46419 3.38216 4.17773 3.79883C3.89779 4.21549 3.6862 4.72331 3.54297 5.32227C3.39974 5.92122 3.32812 6.60482 3.32812 7.37305V8.37891C3.32812 9.16016 3.40951 9.85352 3.57227 10.459C3.74154 11.0645 3.98242 11.5755 4.29492 11.9922C4.61393 12.4089 5.0013 12.7246 5.45703 12.9395C5.91276 13.1478 6.42708 13.252 7 13.252C7.5599 13.252 8.01888 13.2064 8.37695 13.1152C8.73503 13.0176 9.01823 12.9036 9.22656 12.7734C9.44141 12.6367 9.60742 12.5065 9.72461 12.3828V9.56055H6.76562V7.73438H12.166ZM24.1875 13.0566V15H16.6387V13.0566H24.1875ZM17.332 0.78125V15H14.8809V0.78125H17.332ZM23.2012 6.71875V8.63281H16.6387V6.71875H23.2012ZM24.1387 0.78125V2.73438H16.6387V0.78125H24.1387ZM37.5273 7.5V8.28125C37.5273 9.35547 37.3874 10.319 37.1074 11.1719C36.8275 12.0247 36.4271 12.7507 35.9062 13.3496C35.3919 13.9486 34.7734 14.4076 34.0508 14.7266C33.3281 15.0391 32.5273 15.1953 31.6484 15.1953C30.776 15.1953 29.9785 15.0391 29.2559 14.7266C28.5397 14.4076 27.918 13.9486 27.3906 13.3496C26.8633 12.7507 26.4531 12.0247 26.1602 11.1719C25.8737 10.319 25.7305 9.35547 25.7305 8.28125V7.5C25.7305 6.42578 25.8737 5.46549 26.1602 4.61914C26.4466 3.76628 26.8503 3.04036 27.3711 2.44141C27.8984 1.83594 28.5202 1.37695 29.2363 1.06445C29.959 0.745443 30.7565 0.585938 31.6289 0.585938C32.5078 0.585938 33.3086 0.745443 34.0312 1.06445C34.7539 1.37695 35.3757 1.83594 35.8965 2.44141C36.4173 3.04036 36.8177 3.76628 37.0977 4.61914C37.3841 5.46549 37.5273 6.42578 37.5273 7.5ZM35.0762 8.28125V7.48047C35.0762 6.6862 34.998 5.98633 34.8418 5.38086C34.6921 4.76888 34.4674 4.25781 34.168 3.84766C33.875 3.43099 33.5137 3.11849 33.084 2.91016C32.6543 2.69531 32.1693 2.58789 31.6289 2.58789C31.0885 2.58789 30.6068 2.69531 30.1836 2.91016C29.7604 3.11849 29.3991 3.43099 29.0996 3.84766C28.8066 4.25781 28.582 4.76888 28.4258 5.38086C28.2695 5.98633 28.1914 6.6862 28.1914 7.48047V8.28125C28.1914 9.07552 28.2695 9.77865 28.4258 10.3906C28.582 11.0026 28.8099 11.5202 29.1094 11.9434C29.4154 12.36 29.7799 12.6758 30.2031 12.8906C30.6263 13.099 31.1081 13.2031 31.6484 13.2031C32.1953 13.2031 32.6803 13.099 33.1035 12.8906C33.5267 12.6758 33.8848 12.36 34.1777 11.9434C34.4707 11.5202 34.6921 11.0026 34.8418 10.3906C34.998 9.77865 35.0762 9.07552 35.0762 8.28125ZM40.9746 0.78125H43.1621L47.2734 11.748L51.375 0.78125H53.5625L48.1328 15H46.3945L40.9746 0.78125ZM39.9785 0.78125H42.0586L42.4199 10.2734V15H39.9785V0.78125ZM52.4785 0.78125H54.5684V15H52.1172V10.2734L52.4785 0.78125ZM61.9023 15.1953C61.1211 15.1953 60.4147 15.0684 59.7832 14.8145C59.1582 14.554 58.6243 14.1927 58.1816 13.7305C57.7454 13.2682 57.4102 12.7246 57.1758 12.0996C56.9414 11.4746 56.8242 10.8008 56.8242 10.0781V9.6875C56.8242 8.86068 56.9447 8.11198 57.1855 7.44141C57.4264 6.77083 57.7617 6.19792 58.1914 5.72266C58.6211 5.24089 59.1289 4.87305 59.7148 4.61914C60.3008 4.36523 60.9355 4.23828 61.6191 4.23828C62.3743 4.23828 63.0352 4.36523 63.6016 4.61914C64.168 4.87305 64.6367 5.23112 65.0078 5.69336C65.3854 6.14909 65.6654 6.69271 65.8477 7.32422C66.0365 7.95573 66.1309 8.65234 66.1309 9.41406V10.4199H57.9668V8.73047H63.8066V8.54492C63.7936 8.12174 63.709 7.72461 63.5527 7.35352C63.403 6.98242 63.1719 6.68294 62.8594 6.45508C62.5469 6.22721 62.1302 6.11328 61.6094 6.11328C61.2188 6.11328 60.8704 6.19792 60.5645 6.36719C60.265 6.52995 60.0143 6.76758 59.8125 7.08008C59.6107 7.39258 59.4544 7.77018 59.3438 8.21289C59.2396 8.64909 59.1875 9.14062 59.1875 9.6875V10.0781C59.1875 10.5404 59.2493 10.9701 59.373 11.3672C59.5033 11.7578 59.6921 12.0996 59.9395 12.3926C60.1868 12.6855 60.4863 12.9167 60.8379 13.0859C61.1895 13.2487 61.5898 13.3301 62.0391 13.3301C62.6055 13.3301 63.11 13.2161 63.5527 12.9883C63.9954 12.7604 64.3796 12.4382 64.7051 12.0215L65.9453 13.2227C65.7174 13.5547 65.4212 13.8737 65.0566 14.1797C64.6921 14.4792 64.2461 14.7233 63.7188 14.9121C63.1979 15.1009 62.5924 15.1953 61.9023 15.1953ZM72.8105 4.43359V6.15234H66.8535V4.43359H72.8105ZM68.5723 1.8457H70.9258V12.0801C70.9258 12.4056 70.9714 12.6562 71.0625 12.832C71.1602 13.0013 71.2936 13.1152 71.4629 13.1738C71.6322 13.2324 71.8307 13.2617 72.0586 13.2617C72.2214 13.2617 72.3776 13.252 72.5273 13.2324C72.6771 13.2129 72.7975 13.1934 72.8887 13.1738L72.8984 14.9707C72.7031 15.0293 72.4753 15.0814 72.2148 15.127C71.9609 15.1725 71.668 15.1953 71.3359 15.1953C70.7956 15.1953 70.3171 15.1009 69.9004 14.9121C69.4837 14.7168 69.1582 14.401 68.9238 13.9648C68.6895 13.5286 68.5723 12.9492 68.5723 12.2266V1.8457ZM80.584 12.8809V7.8418C80.584 7.46419 80.5156 7.13867 80.3789 6.86523C80.2422 6.5918 80.0339 6.38021 79.7539 6.23047C79.4805 6.08073 79.1354 6.00586 78.7188 6.00586C78.3346 6.00586 78.0026 6.07096 77.7227 6.20117C77.4427 6.33138 77.2246 6.50716 77.0684 6.72852C76.9121 6.94987 76.834 7.20052 76.834 7.48047H74.4902C74.4902 7.0638 74.5911 6.66016 74.793 6.26953C74.9948 5.87891 75.2878 5.5306 75.6719 5.22461C76.056 4.91862 76.515 4.67773 77.0488 4.50195C77.5827 4.32617 78.1816 4.23828 78.8457 4.23828C79.64 4.23828 80.3431 4.37174 80.9551 4.63867C81.5736 4.9056 82.0586 5.30924 82.4102 5.84961C82.7682 6.38346 82.9473 7.05404 82.9473 7.86133V12.5586C82.9473 13.0404 82.9798 13.4733 83.0449 13.8574C83.1165 14.235 83.2174 14.5638 83.3477 14.8438V15H80.9355C80.8249 14.7461 80.737 14.4238 80.6719 14.0332C80.6133 13.6361 80.584 13.252 80.584 12.8809ZM80.9258 8.57422L80.9453 10.0293H79.2559C78.8197 10.0293 78.4355 10.0716 78.1035 10.1562C77.7715 10.2344 77.4948 10.3516 77.2734 10.5078C77.0521 10.6641 76.8861 10.8529 76.7754 11.0742C76.6647 11.2956 76.6094 11.5462 76.6094 11.8262C76.6094 12.1061 76.6745 12.3633 76.8047 12.5977C76.9349 12.8255 77.1237 13.0046 77.3711 13.1348C77.625 13.265 77.931 13.3301 78.2891 13.3301C78.7708 13.3301 79.1908 13.2324 79.5488 13.0371C79.9134 12.8353 80.1999 12.5911 80.4082 12.3047C80.6165 12.0117 80.7272 11.735 80.7402 11.4746L81.502 12.5195C81.4238 12.7865 81.2904 13.0729 81.1016 13.3789C80.9128 13.6849 80.6654 13.9779 80.3594 14.2578C80.0599 14.5312 79.6986 14.7559 79.2754 14.9316C78.8587 15.1074 78.377 15.1953 77.8301 15.1953C77.14 15.1953 76.5247 15.0586 75.9844 14.7852C75.444 14.5052 75.0208 14.1309 74.7148 13.6621C74.4089 13.1868 74.2559 12.6497 74.2559 12.0508C74.2559 11.4909 74.36 10.9961 74.5684 10.5664C74.7832 10.1302 75.0957 9.76562 75.5059 9.47266C75.9225 9.17969 76.4303 8.95833 77.0293 8.80859C77.6283 8.65234 78.3118 8.57422 79.0801 8.57422H80.9258Z"/>
</mask>
<path d="M12.166 7.73438V13.1641C11.9642 13.431 11.6484 13.724 11.2188 14.043C10.7956 14.3555 10.2324 14.6257 9.5293 14.8535C8.82617 15.0814 7.95052 15.1953 6.90234 15.1953C6.01042 15.1953 5.19336 15.0456 4.45117 14.7461C3.70898 14.4401 3.06771 13.9941 2.52734 13.4082C1.99349 12.8223 1.58008 12.1094 1.28711 11.2695C0.994141 10.4232 0.847656 9.45964 0.847656 8.37891V7.39258C0.847656 6.31836 0.98112 5.36133 1.24805 4.52148C1.52148 3.67513 1.91211 2.95898 2.41992 2.37305C2.92773 1.78711 3.53971 1.3444 4.25586 1.04492C4.97852 0.738932 5.79557 0.585938 6.70703 0.585938C7.8724 0.585938 8.83594 0.78125 9.59766 1.17188C10.3659 1.55599 10.9583 2.08984 11.375 2.77344C11.7917 3.45703 12.0553 4.23828 12.166 5.11719H9.76367C9.68555 4.6224 9.53255 4.17969 9.30469 3.78906C9.08333 3.39844 8.76432 3.09245 8.34766 2.87109C7.9375 2.64323 7.40365 2.5293 6.74609 2.5293C6.17969 2.5293 5.68164 2.63672 5.25195 2.85156C4.82227 3.06641 4.46419 3.38216 4.17773 3.79883C3.89779 4.21549 3.6862 4.72331 3.54297 5.32227C3.39974 5.92122 3.32812 6.60482 3.32812 7.37305V8.37891C3.32812 9.16016 3.40951 9.85352 3.57227 10.459C3.74154 11.0645 3.98242 11.5755 4.29492 11.9922C4.61393 12.4089 5.0013 12.7246 5.45703 12.9395C5.91276 13.1478 6.42708 13.252 7 13.252C7.5599 13.252 8.01888 13.2064 8.37695 13.1152C8.73503 13.0176 9.01823 12.9036 9.22656 12.7734C9.44141 12.6367 9.60742 12.5065 9.72461 12.3828V9.56055H6.76562V7.73438H12.166ZM24.1875 13.0566V15H16.6387V13.0566H24.1875ZM17.332 0.78125V15H14.8809V0.78125H17.332ZM23.2012 6.71875V8.63281H16.6387V6.71875H23.2012ZM24.1387 0.78125V2.73438H16.6387V0.78125H24.1387ZM37.5273 7.5V8.28125C37.5273 9.35547 37.3874 10.319 37.1074 11.1719C36.8275 12.0247 36.4271 12.7507 35.9062 13.3496C35.3919 13.9486 34.7734 14.4076 34.0508 14.7266C33.3281 15.0391 32.5273 15.1953 31.6484 15.1953C30.776 15.1953 29.9785 15.0391 29.2559 14.7266C28.5397 14.4076 27.918 13.9486 27.3906 13.3496C26.8633 12.7507 26.4531 12.0247 26.1602 11.1719C25.8737 10.319 25.7305 9.35547 25.7305 8.28125V7.5C25.7305 6.42578 25.8737 5.46549 26.1602 4.61914C26.4466 3.76628 26.8503 3.04036 27.3711 2.44141C27.8984 1.83594 28.5202 1.37695 29.2363 1.06445C29.959 0.745443 30.7565 0.585938 31.6289 0.585938C32.5078 0.585938 33.3086 0.745443 34.0312 1.06445C34.7539 1.37695 35.3757 1.83594 35.8965 2.44141C36.4173 3.04036 36.8177 3.76628 37.0977 4.61914C37.3841 5.46549 37.5273 6.42578 37.5273 7.5ZM35.0762 8.28125V7.48047C35.0762 6.6862 34.998 5.98633 34.8418 5.38086C34.6921 4.76888 34.4674 4.25781 34.168 3.84766C33.875 3.43099 33.5137 3.11849 33.084 2.91016C32.6543 2.69531 32.1693 2.58789 31.6289 2.58789C31.0885 2.58789 30.6068 2.69531 30.1836 2.91016C29.7604 3.11849 29.3991 3.43099 29.0996 3.84766C28.8066 4.25781 28.582 4.76888 28.4258 5.38086C28.2695 5.98633 28.1914 6.6862 28.1914 7.48047V8.28125C28.1914 9.07552 28.2695 9.77865 28.4258 10.3906C28.582 11.0026 28.8099 11.5202 29.1094 11.9434C29.4154 12.36 29.7799 12.6758 30.2031 12.8906C30.6263 13.099 31.1081 13.2031 31.6484 13.2031C32.1953 13.2031 32.6803 13.099 33.1035 12.8906C33.5267 12.6758 33.8848 12.36 34.1777 11.9434C34.4707 11.5202 34.6921 11.0026 34.8418 10.3906C34.998 9.77865 35.0762 9.07552 35.0762 8.28125ZM40.9746 0.78125H43.1621L47.2734 11.748L51.375 0.78125H53.5625L48.1328 15H46.3945L40.9746 0.78125ZM39.9785 0.78125H42.0586L42.4199 10.2734V15H39.9785V0.78125ZM52.4785 0.78125H54.5684V15H52.1172V10.2734L52.4785 0.78125ZM61.9023 15.1953C61.1211 15.1953 60.4147 15.0684 59.7832 14.8145C59.1582 14.554 58.6243 14.1927 58.1816 13.7305C57.7454 13.2682 57.4102 12.7246 57.1758 12.0996C56.9414 11.4746 56.8242 10.8008 56.8242 10.0781V9.6875C56.8242 8.86068 56.9447 8.11198 57.1855 7.44141C57.4264 6.77083 57.7617 6.19792 58.1914 5.72266C58.6211 5.24089 59.1289 4.87305 59.7148 4.61914C60.3008 4.36523 60.9355 4.23828 61.6191 4.23828C62.3743 4.23828 63.0352 4.36523 63.6016 4.61914C64.168 4.87305 64.6367 5.23112 65.0078 5.69336C65.3854 6.14909 65.6654 6.69271 65.8477 7.32422C66.0365 7.95573 66.1309 8.65234 66.1309 9.41406V10.4199H57.9668V8.73047H63.8066V8.54492C63.7936 8.12174 63.709 7.72461 63.5527 7.35352C63.403 6.98242 63.1719 6.68294 62.8594 6.45508C62.5469 6.22721 62.1302 6.11328 61.6094 6.11328C61.2188 6.11328 60.8704 6.19792 60.5645 6.36719C60.265 6.52995 60.0143 6.76758 59.8125 7.08008C59.6107 7.39258 59.4544 7.77018 59.3438 8.21289C59.2396 8.64909 59.1875 9.14062 59.1875 9.6875V10.0781C59.1875 10.5404 59.2493 10.9701 59.373 11.3672C59.5033 11.7578 59.6921 12.0996 59.9395 12.3926C60.1868 12.6855 60.4863 12.9167 60.8379 13.0859C61.1895 13.2487 61.5898 13.3301 62.0391 13.3301C62.6055 13.3301 63.11 13.2161 63.5527 12.9883C63.9954 12.7604 64.3796 12.4382 64.7051 12.0215L65.9453 13.2227C65.7174 13.5547 65.4212 13.8737 65.0566 14.1797C64.6921 14.4792 64.2461 14.7233 63.7188 14.9121C63.1979 15.1009 62.5924 15.1953 61.9023 15.1953ZM72.8105 4.43359V6.15234H66.8535V4.43359H72.8105ZM68.5723 1.8457H70.9258V12.0801C70.9258 12.4056 70.9714 12.6562 71.0625 12.832C71.1602 13.0013 71.2936 13.1152 71.4629 13.1738C71.6322 13.2324 71.8307 13.2617 72.0586 13.2617C72.2214 13.2617 72.3776 13.252 72.5273 13.2324C72.6771 13.2129 72.7975 13.1934 72.8887 13.1738L72.8984 14.9707C72.7031 15.0293 72.4753 15.0814 72.2148 15.127C71.9609 15.1725 71.668 15.1953 71.3359 15.1953C70.7956 15.1953 70.3171 15.1009 69.9004 14.9121C69.4837 14.7168 69.1582 14.401 68.9238 13.9648C68.6895 13.5286 68.5723 12.9492 68.5723 12.2266V1.8457ZM80.584 12.8809V7.8418C80.584 7.46419 80.5156 7.13867 80.3789 6.86523C80.2422 6.5918 80.0339 6.38021 79.7539 6.23047C79.4805 6.08073 79.1354 6.00586 78.7188 6.00586C78.3346 6.00586 78.0026 6.07096 77.7227 6.20117C77.4427 6.33138 77.2246 6.50716 77.0684 6.72852C76.9121 6.94987 76.834 7.20052 76.834 7.48047H74.4902C74.4902 7.0638 74.5911 6.66016 74.793 6.26953C74.9948 5.87891 75.2878 5.5306 75.6719 5.22461C76.056 4.91862 76.515 4.67773 77.0488 4.50195C77.5827 4.32617 78.1816 4.23828 78.8457 4.23828C79.64 4.23828 80.3431 4.37174 80.9551 4.63867C81.5736 4.9056 82.0586 5.30924 82.4102 5.84961C82.7682 6.38346 82.9473 7.05404 82.9473 7.86133V12.5586C82.9473 13.0404 82.9798 13.4733 83.0449 13.8574C83.1165 14.235 83.2174 14.5638 83.3477 14.8438V15H80.9355C80.8249 14.7461 80.737 14.4238 80.6719 14.0332C80.6133 13.6361 80.584 13.252 80.584 12.8809ZM80.9258 8.57422L80.9453 10.0293H79.2559C78.8197 10.0293 78.4355 10.0716 78.1035 10.1562C77.7715 10.2344 77.4948 10.3516 77.2734 10.5078C77.0521 10.6641 76.8861 10.8529 76.7754 11.0742C76.6647 11.2956 76.6094 11.5462 76.6094 11.8262C76.6094 12.1061 76.6745 12.3633 76.8047 12.5977C76.9349 12.8255 77.1237 13.0046 77.3711 13.1348C77.625 13.265 77.931 13.3301 78.2891 13.3301C78.7708 13.3301 79.1908 13.2324 79.5488 13.0371C79.9134 12.8353 80.1999 12.5911 80.4082 12.3047C80.6165 12.0117 80.7272 11.735 80.7402 11.4746L81.502 12.5195C81.4238 12.7865 81.2904 13.0729 81.1016 13.3789C80.9128 13.6849 80.6654 13.9779 80.3594 14.2578C80.0599 14.5312 79.6986 14.7559 79.2754 14.9316C78.8587 15.1074 78.377 15.1953 77.8301 15.1953C77.14 15.1953 76.5247 15.0586 75.9844 14.7852C75.444 14.5052 75.0208 14.1309 74.7148 13.6621C74.4089 13.1868 74.2559 12.6497 74.2559 12.0508C74.2559 11.4909 74.36 10.9961 74.5684 10.5664C74.7832 10.1302 75.0957 9.76562 75.5059 9.47266C75.9225 9.17969 76.4303 8.95833 77.0293 8.80859C77.6283 8.65234 78.3118 8.57422 79.0801 8.57422H80.9258Z" fill="white"/>
<path d="M12.166 7.73438H13.166C13.166 7.18209 12.7183 6.73438 12.166 6.73438V7.73438ZM12.166 13.1641L12.9637 13.7672C13.095 13.5935 13.166 13.3818 13.166 13.1641H12.166ZM11.2188 14.043L11.8128 14.8474L11.8148 14.8459L11.2188 14.043ZM4.45117 14.7461L4.07 15.6706L4.07698 15.6734L4.45117 14.7461ZM2.52734 13.4082L1.78813 14.0817L1.79223 14.0861L2.52734 13.4082ZM1.28711 11.2695L0.342121 11.5966L0.342909 11.5989L1.28711 11.2695ZM1.24805 4.52148L0.296466 4.21405L0.295024 4.21859L1.24805 4.52148ZM4.25586 1.04492L4.64167 1.96751L4.64577 1.96577L4.25586 1.04492ZM9.59766 1.17188L9.14132 2.06174L9.15044 2.0663L9.59766 1.17188ZM12.166 5.11719V6.11719C12.453 6.11719 12.7262 5.99388 12.916 5.77865C13.1058 5.56341 13.194 5.27699 13.1582 4.99225L12.166 5.11719ZM9.76367 5.11719L8.77591 5.27315C8.85265 5.7592 9.2716 6.11719 9.76367 6.11719V5.11719ZM9.30469 3.78906L8.4346 4.28211L8.44091 4.29293L9.30469 3.78906ZM8.34766 2.87109L7.86201 3.74525C7.86748 3.74829 7.87298 3.75127 7.8785 3.75421L8.34766 2.87109ZM4.17773 3.79883L3.35365 3.23227L3.34768 3.24114L4.17773 3.79883ZM3.54297 5.32227L2.57039 5.08969L3.54297 5.32227ZM3.57227 10.459L2.6065 10.7186L2.60919 10.7282L3.57227 10.459ZM4.29492 11.9922L3.49488 12.5922L3.50092 12.6001L4.29492 11.9922ZM5.45703 12.9395L5.03058 13.844L5.04127 13.8489L5.45703 12.9395ZM8.37695 13.1152L8.62363 14.0843C8.62912 14.0829 8.6346 14.0815 8.64007 14.08L8.37695 13.1152ZM9.22656 12.7734L9.75658 13.6215L9.76344 13.6171L9.22656 12.7734ZM9.72461 12.3828L10.4506 13.0706C10.6265 12.8848 10.7246 12.6387 10.7246 12.3828H9.72461ZM9.72461 9.56055H10.7246C10.7246 9.00826 10.2769 8.56055 9.72461 8.56055V9.56055ZM6.76562 9.56055H5.76562C5.76562 10.1128 6.21334 10.5605 6.76562 10.5605V9.56055ZM6.76562 7.73438V6.73438C6.21334 6.73438 5.76562 7.18209 5.76562 7.73438H6.76562ZM11.166 7.73438V13.1641H13.166V7.73438H11.166ZM11.3684 12.561C11.2476 12.7206 11.0158 12.9481 10.6227 13.2401L11.8148 14.8459C12.281 14.4998 12.6808 14.1413 12.9637 13.7672L11.3684 12.561ZM10.6247 13.2385C10.3155 13.4669 9.85976 13.6952 9.22101 13.9022L9.83759 15.8048C10.6051 15.5561 11.2756 15.2441 11.8128 14.8474L10.6247 13.2385ZM9.22101 13.9022C8.6495 14.0874 7.88589 14.1953 6.90234 14.1953V16.1953C8.01515 16.1953 9.00284 16.0753 9.83759 15.8048L9.22101 13.9022ZM6.90234 14.1953C6.12399 14.1953 5.43576 14.065 4.82537 13.8187L4.07698 15.6734C4.95096 16.0261 5.89684 16.1953 6.90234 16.1953V14.1953ZM4.83233 13.8216C4.22366 13.5706 3.70345 13.2084 3.26246 12.7303L1.79223 14.0861C2.43196 14.7798 3.19431 15.3096 4.07001 15.6706L4.83233 13.8216ZM3.26654 12.7347C2.834 12.26 2.48528 11.6682 2.23131 10.9402L0.342909 11.5989C0.67488 12.5506 1.15298 13.3846 1.78815 14.0817L3.26654 12.7347ZM2.2321 10.9424C1.98219 10.2205 1.84766 9.37059 1.84766 8.37891H-0.152344C-0.152344 9.54868 0.00609485 10.6259 0.342123 11.5966L2.2321 10.9424ZM1.84766 8.37891V7.39258H-0.152344V8.37891H1.84766ZM1.84766 7.39258C1.84766 6.39947 1.97122 5.54757 2.20107 4.82438L0.295024 4.21859C-0.00898093 5.17509 -0.152344 6.23725 -0.152344 7.39258H1.84766ZM2.19962 4.82891C2.43779 4.0917 2.76777 3.49857 3.17561 3.02798L1.66423 1.71812C1.05645 2.4194 0.605175 3.25856 0.296476 4.21405L2.19962 4.82891ZM3.17561 3.02798C3.5823 2.55872 4.06764 2.20755 4.64167 1.9675L3.87005 0.122342C3.01179 0.481252 2.27317 1.0155 1.66423 1.71812L3.17561 3.02798ZM4.64577 1.96577C5.22679 1.71976 5.90814 1.58594 6.70703 1.58594V-0.414062C5.68301 -0.414062 4.73025 -0.241894 3.86595 0.124069L4.64577 1.96577ZM6.70703 1.58594C7.76822 1.58594 8.56245 1.76483 9.14134 2.06169L10.054 0.282058C9.10943 -0.202325 7.97657 -0.414062 6.70703 -0.414062V1.58594ZM9.15044 2.0663C9.76344 2.3728 10.2094 2.78244 10.5211 3.2939L12.2289 2.25297C11.7073 1.39725 10.9683 0.739176 10.0449 0.277448L9.15044 2.0663ZM10.5211 3.2939C10.8568 3.8446 11.0789 4.48832 11.1739 5.24213L13.1582 4.99225C13.0317 3.98824 12.7266 3.06946 12.2289 2.25297L10.5211 3.2939ZM12.166 4.11719H9.76367V6.11719H12.166V4.11719ZM10.7514 4.96122C10.656 4.35696 10.4653 3.79404 10.1685 3.28519L8.44091 4.29293C8.59981 4.56533 8.71507 4.88783 8.77591 5.27315L10.7514 4.96122ZM10.1747 3.29605C9.85468 2.73129 9.39252 2.29382 8.81681 1.98798L7.8785 3.75421C8.13613 3.89107 8.31199 4.06559 8.43467 4.28208L10.1747 3.29605ZM8.8333 1.99694C8.22683 1.66001 7.509 1.5293 6.74609 1.5293V3.5293C7.29829 3.5293 7.64817 3.62645 7.86201 3.74525L8.8333 1.99694ZM6.74609 1.5293C6.0521 1.5293 5.39607 1.66147 4.80474 1.95714L5.69917 3.74599C5.96721 3.61197 6.30728 3.5293 6.74609 3.5293V1.5293ZM4.80474 1.95714C4.2157 2.25165 3.73079 2.6838 3.35369 3.2323L5.00178 4.36536C5.1976 4.08052 5.42883 3.88116 5.69917 3.74599L4.80474 1.95714ZM3.34768 3.24114C2.98805 3.77642 2.73528 4.40017 2.57039 5.08969L4.51555 5.55484C4.63712 5.04645 4.80753 4.65457 5.00778 4.35652L3.34768 3.24114ZM2.57039 5.08969C2.40511 5.78085 2.32812 6.54487 2.32812 7.37305H4.32812C4.32812 6.66476 4.39437 6.0616 4.51555 5.55484L2.57039 5.08969ZM2.32812 7.37305V8.37891H4.32812V7.37305H2.32812ZM2.32812 8.37891C2.32812 9.22729 2.41626 10.0107 2.60655 10.7186L4.53798 10.1994C4.40275 9.69633 4.32812 9.09302 4.32812 8.37891H2.32812ZM2.60919 10.7282C2.80512 11.429 3.09438 12.0581 3.49492 12.5922L5.09492 11.3922C4.87047 11.0929 4.67795 10.6999 4.53534 10.1897L2.60919 10.7282ZM3.50092 12.6001C3.91284 13.1381 4.42435 13.5582 5.03061 13.844L5.88345 12.0349C5.57825 11.891 5.31502 11.6796 5.08893 11.3843L3.50092 12.6001ZM5.04127 13.8489C5.64495 14.1249 6.30414 14.252 7 14.252V12.252C6.55003 12.252 6.18057 12.1707 5.87279 12.03L5.04127 13.8489ZM7 14.252C7.60508 14.252 8.15495 14.2036 8.62363 14.0843L8.13027 12.1461C7.88281 12.2091 7.51471 12.252 7 12.252V14.252ZM8.64007 14.08C9.04945 13.9684 9.43471 13.8226 9.75656 13.6214L8.69656 11.9254C8.60175 11.9847 8.4206 12.0668 8.11384 12.1505L8.64007 14.08ZM9.76344 13.6171C10.017 13.4558 10.2566 13.2753 10.4506 13.0706L8.99866 11.6951C8.95823 11.7377 8.86583 11.8177 8.68969 11.9298L9.76344 13.6171ZM10.7246 12.3828V9.56055H8.72461V12.3828H10.7246ZM9.72461 8.56055H6.76562V10.5605H9.72461V8.56055ZM7.76562 9.56055V7.73438H5.76562V9.56055H7.76562ZM6.76562 8.73438H12.166V6.73438H6.76562V8.73438ZM24.1875 13.0566H25.1875C25.1875 12.5044 24.7398 12.0566 24.1875 12.0566V13.0566ZM24.1875 15V16C24.7398 16 25.1875 15.5523 25.1875 15H24.1875ZM16.6387 15H15.6387C15.6387 15.5523 16.0864 16 16.6387 16V15ZM16.6387 13.0566V12.0566C16.0864 12.0566 15.6387 12.5044 15.6387 13.0566H16.6387ZM17.332 0.78125H18.332C18.332 0.228965 17.8843 -0.21875 17.332 -0.21875V0.78125ZM17.332 15V16C17.8843 16 18.332 15.5523 18.332 15H17.332ZM14.8809 15H13.8809C13.8809 15.5523 14.3286 16 14.8809 16V15ZM14.8809 0.78125V-0.21875C14.3286 -0.21875 13.8809 0.228965 13.8809 0.78125H14.8809ZM23.2012 6.71875H24.2012C24.2012 6.16647 23.7535 5.71875 23.2012 5.71875V6.71875ZM23.2012 8.63281V9.63281C23.7535 9.63281 24.2012 9.1851 24.2012 8.63281H23.2012ZM16.6387 8.63281H15.6387C15.6387 9.1851 16.0864 9.63281 16.6387 9.63281V8.63281ZM16.6387 6.71875V5.71875C16.0864 5.71875 15.6387 6.16647 15.6387 6.71875H16.6387ZM24.1387 0.78125H25.1387C25.1387 0.228965 24.691 -0.21875 24.1387 -0.21875V0.78125ZM24.1387 2.73438V3.73438C24.691 3.73438 25.1387 3.28666 25.1387 2.73438H24.1387ZM16.6387 2.73438H15.6387C15.6387 3.28666 16.0864 3.73438 16.6387 3.73438V2.73438ZM16.6387 0.78125V-0.21875C16.0864 -0.21875 15.6387 0.228965 15.6387 0.78125H16.6387ZM23.1875 13.0566V15H25.1875V13.0566H23.1875ZM24.1875 14H16.6387V16H24.1875V14ZM17.6387 15V13.0566H15.6387V15H17.6387ZM16.6387 14.0566H24.1875V12.0566H16.6387V14.0566ZM16.332 0.78125V15H18.332V0.78125H16.332ZM17.332 14H14.8809V16H17.332V14ZM15.8809 15V0.78125H13.8809V15H15.8809ZM14.8809 1.78125H17.332V-0.21875H14.8809V1.78125ZM22.2012 6.71875V8.63281H24.2012V6.71875H22.2012ZM23.2012 7.63281H16.6387V9.63281H23.2012V7.63281ZM17.6387 8.63281V6.71875H15.6387V8.63281H17.6387ZM16.6387 7.71875H23.2012V5.71875H16.6387V7.71875ZM23.1387 0.78125V2.73438H25.1387V0.78125H23.1387ZM24.1387 1.73438H16.6387V3.73438H24.1387V1.73438ZM17.6387 2.73438V0.78125H15.6387V2.73438H17.6387ZM16.6387 1.78125H24.1387V-0.21875H16.6387V1.78125ZM35.9062 13.3496L35.1516 12.6934L35.1476 12.6981L35.9062 13.3496ZM34.0508 14.7266L34.4477 15.6444L34.4546 15.6414L34.0508 14.7266ZM29.2559 14.7266L28.8489 15.6401L28.8589 15.6444L29.2559 14.7266ZM27.3906 13.3496L26.6401 14.0104L27.3906 13.3496ZM26.1602 11.1719L25.2122 11.4903L25.2144 11.4968L26.1602 11.1719ZM26.1602 4.61914L27.1074 4.93974L27.1081 4.93754L26.1602 4.61914ZM27.3711 2.44141L26.617 1.78463L26.6165 1.78523L27.3711 2.44141ZM29.2363 1.06445L29.6363 1.981L29.6402 1.97928L29.2363 1.06445ZM34.0312 1.06445L33.6274 1.97931L33.6343 1.98231L34.0312 1.06445ZM35.8965 2.44141L35.1384 3.09355L35.1419 3.09758L35.8965 2.44141ZM37.0977 4.61914L36.1475 4.93103L36.1504 4.93974L37.0977 4.61914ZM34.8418 5.38086L33.8704 5.61855L33.8735 5.63074L34.8418 5.38086ZM34.168 3.84766L33.3499 4.42283C33.3534 4.4277 33.3568 4.43254 33.3603 4.43735L34.168 3.84766ZM33.084 2.91016L32.6367 3.80465L32.6477 3.80997L33.084 2.91016ZM30.1836 2.91016L30.6253 3.80739L30.6363 3.80182L30.1836 2.91016ZM29.0996 3.84766L28.2876 3.26402L28.2859 3.26642L29.0996 3.84766ZM28.4258 5.38086L29.3941 5.63074L29.3947 5.62824L28.4258 5.38086ZM29.1094 11.9434L28.2931 12.521C28.2965 12.5258 28.2999 12.5306 28.3034 12.5353L29.1094 11.9434ZM30.2031 12.8906L29.7504 13.7824L29.7614 13.7878L30.2031 12.8906ZM33.1035 12.8906L33.5452 13.7879L33.5562 13.7823L33.1035 12.8906ZM34.1777 11.9434L34.9958 12.5186L34.9999 12.5126L34.1777 11.9434ZM34.8418 10.3906L33.8728 10.1432L33.8705 10.153L34.8418 10.3906ZM36.5273 7.5V8.28125H38.5273V7.5H36.5273ZM36.5273 8.28125C36.5273 9.26973 36.3984 10.1253 36.1573 10.86L38.0575 11.4837C38.3763 10.5127 38.5273 9.44121 38.5273 8.28125H36.5273ZM36.1573 10.86C35.9135 11.6027 35.5743 12.2074 35.1516 12.6934L36.6609 14.0058C37.2799 13.2939 37.7414 12.4467 38.0575 11.4837L36.1573 10.86ZM35.1476 12.6981C34.7305 13.1839 34.2332 13.5529 33.6469 13.8117L34.4546 15.6414C35.3136 15.2622 36.0534 14.7133 36.6649 14.0011L35.1476 12.6981ZM33.6539 13.8087C33.0703 14.061 32.4067 14.1953 31.6484 14.1953V16.1953C32.648 16.1953 33.5859 16.0171 34.4477 15.6444L33.6539 13.8087ZM31.6484 14.1953C30.8978 14.1953 30.2372 14.0614 29.6528 13.8087L28.8589 15.6444C29.7198 16.0167 30.6543 16.1953 31.6484 16.1953V14.1953ZM29.6628 13.8131C29.0804 13.5537 28.5752 13.1818 28.1412 12.6888L26.6401 14.0104C27.2607 14.7153 27.999 15.2614 28.849 15.64L29.6628 13.8131ZM28.1412 12.6888C27.7108 12.1999 27.3619 11.5922 27.1059 10.847L25.2144 11.4968C25.5443 12.4573 26.0158 13.3014 26.6401 14.0104L28.1412 12.6888ZM27.1081 10.8535C26.8621 10.1209 26.7305 9.26761 26.7305 8.28125H24.7305C24.7305 9.44333 24.8853 10.5171 25.2122 11.4903L27.1081 10.8535ZM26.7305 8.28125V7.5H24.7305V8.28125H26.7305ZM26.7305 7.5C26.7305 6.51344 26.8621 5.66436 27.1074 4.93974L25.2129 4.29854C24.8853 5.26663 24.7305 6.33812 24.7305 7.5H26.7305ZM27.1081 4.93754C27.3584 4.19235 27.7015 3.58537 28.1257 3.09758L26.6165 1.78523C25.999 2.49536 25.5348 3.3402 25.2122 4.30074L27.1081 4.93754ZM28.1252 3.09819C28.5579 2.6013 29.0598 2.23256 29.6363 1.98099L28.8364 0.147914C27.9806 0.521351 27.2389 1.07058 26.617 1.78463L28.1252 3.09819ZM29.6402 1.97928C30.2229 1.72205 30.881 1.58594 31.6289 1.58594V-0.414062C30.632 -0.414062 29.6951 -0.231163 28.8325 0.149625L29.6402 1.97928ZM31.6289 1.58594C32.3845 1.58594 33.0456 1.72246 33.6274 1.97928L34.4351 0.149625C33.5716 -0.231571 32.6312 -0.414062 31.6289 -0.414062V1.58594ZM33.6343 1.98231C34.216 2.23383 34.7148 2.60113 35.1384 3.09354L36.6546 1.78927C36.0365 1.07074 35.2918 0.520076 34.4282 0.146596L33.6343 1.98231ZM35.1419 3.09758C35.5645 3.58361 35.9037 4.18828 36.1475 4.93101L38.0478 4.30727C37.7317 3.34428 37.2701 2.49712 36.6511 1.78523L35.1419 3.09758ZM36.1504 4.93974C36.3957 5.66436 36.5273 6.51344 36.5273 7.5H38.5273C38.5273 6.33812 38.3725 5.26663 38.0449 4.29854L36.1504 4.93974ZM36.0762 8.28125V7.48047H34.0762V8.28125H36.0762ZM36.0762 7.48047C36.0762 6.62342 35.9922 5.83657 35.8101 5.13098L33.8735 5.63074C34.0039 6.13609 34.0762 6.74898 34.0762 7.48047H36.0762ZM35.8131 5.14319C35.6396 4.43385 35.3682 3.7957 34.9756 3.25796L33.3603 4.43735C33.5667 4.71992 33.7445 5.10391 33.8705 5.61853L35.8131 5.14319ZM34.986 3.27248C34.6021 2.72651 34.1129 2.29767 33.5203 2.01034L32.6477 3.80997C32.9145 3.93931 33.1479 4.13547 33.3499 4.42283L34.986 3.27248ZM33.5312 2.01573C32.9462 1.72321 32.305 1.58789 31.6289 1.58789V3.58789C32.0336 3.58789 32.3624 3.66741 32.6368 3.80458L33.5312 2.01573ZM31.6289 1.58789C30.9532 1.58789 30.3127 1.72312 29.7309 2.01849L30.6363 3.80182C30.9008 3.66751 31.2239 3.58789 31.6289 3.58789V1.58789ZM29.7419 2.01299C29.1587 2.3001 28.6743 2.72602 28.2876 3.26402L29.9116 4.43129C30.1239 4.13596 30.3621 3.93688 30.6253 3.80733L29.7419 2.01299ZM28.2859 3.26642C27.9053 3.79921 27.6363 4.43076 27.4569 5.13348L29.3947 5.62824C29.5278 5.107 29.708 4.71642 29.9133 4.42889L28.2859 3.26642ZM27.4575 5.13098C27.2754 5.83657 27.1914 6.62342 27.1914 7.48047H29.1914C29.1914 6.74898 29.2636 6.13609 29.3941 5.63074L27.4575 5.13098ZM27.1914 7.48047V8.28125H29.1914V7.48047H27.1914ZM27.1914 8.28125C27.1914 9.1386 27.2755 9.92759 27.4569 10.638L29.3947 10.1432C29.2636 9.6297 29.1914 9.01244 29.1914 8.28125H27.1914ZM27.4569 10.638C27.637 11.3434 27.9094 11.9789 28.2931 12.521L29.9256 11.3657C29.7104 11.0615 29.5271 10.6618 29.3947 10.1432L27.4569 10.638ZM28.3034 12.5353C28.6936 13.0667 29.1755 13.4904 29.7504 13.7823L30.6558 11.999C30.3844 11.8612 30.1371 11.6534 29.9154 11.3514L28.3034 12.5353ZM29.7614 13.7878C30.3408 14.073 30.9773 14.2031 31.6484 14.2031V12.2031C31.2389 12.2031 30.9118 12.1249 30.6448 11.9935L29.7614 13.7878ZM31.6484 14.2031C32.3241 14.2031 32.9643 14.0738 33.5452 13.7878L32.6618 11.9935C32.3964 12.1241 32.0665 12.2031 31.6484 12.2031V14.2031ZM33.5562 13.7823C34.1358 13.488 34.6158 13.0589 34.9958 12.5185L33.3597 11.3682C33.1537 11.6611 32.9176 11.8635 32.6508 11.999L33.5562 13.7823ZM34.9999 12.5126C35.3761 11.9692 35.6407 11.3332 35.8131 10.6283L33.8705 10.153C33.7435 10.672 33.5653 11.0712 33.3555 11.3741L34.9999 12.5126ZM35.8107 10.638C35.9921 9.92759 36.0762 9.1386 36.0762 8.28125H34.0762C34.0762 9.01244 34.004 9.6297 33.8729 10.1432L35.8107 10.638ZM40.9746 0.78125V-0.21875C40.6457 -0.21875 40.3378 -0.0569863 40.1511 0.21388C39.9645 0.484746 39.923 0.830069 40.0402 1.13743L40.9746 0.78125ZM43.1621 0.78125L44.0985 0.430218C43.9521 0.0398665 43.579 -0.21875 43.1621 -0.21875V0.78125ZM47.2734 11.748L46.3371 12.0991C46.4835 12.4896 46.8568 12.7482 47.2738 12.748C47.6909 12.7479 48.064 12.4889 48.2101 12.0983L47.2734 11.748ZM51.375 0.78125V-0.21875C50.9578 -0.21875 50.5845 0.040216 50.4384 0.430949L51.375 0.78125ZM53.5625 0.78125L54.4967 1.13799C54.6141 0.830601 54.5727 0.485136 54.3861 0.214127C54.1995 -0.0568827 53.8915 -0.21875 53.5625 -0.21875V0.78125ZM48.1328 15V16C48.5475 16 48.9191 15.7441 49.067 15.3567L48.1328 15ZM46.3945 15L45.4601 15.3562C45.6079 15.7438 45.9797 16 46.3945 16V15ZM39.9785 0.78125V-0.21875C39.4262 -0.21875 38.9785 0.228965 38.9785 0.78125H39.9785ZM42.0586 0.78125L43.0579 0.743212C43.0374 0.206117 42.5961 -0.21875 42.0586 -0.21875V0.78125ZM42.4199 10.2734H43.4199C43.4199 10.2608 43.4197 10.2481 43.4192 10.2354L42.4199 10.2734ZM42.4199 15V16C42.9722 16 43.4199 15.5523 43.4199 15H42.4199ZM39.9785 15H38.9785C38.9785 15.5523 39.4262 16 39.9785 16V15ZM52.4785 0.78125V-0.21875C51.941 -0.21875 51.4997 0.206117 51.4792 0.743212L52.4785 0.78125ZM54.5684 0.78125H55.5684C55.5684 0.228965 55.1206 -0.21875 54.5684 -0.21875V0.78125ZM54.5684 15V16C55.1206 16 55.5684 15.5523 55.5684 15H54.5684ZM52.1172 15H51.1172C51.1172 15.5523 51.5649 16 52.1172 16V15ZM52.1172 10.2734L51.1179 10.2354C51.1174 10.2481 51.1172 10.2608 51.1172 10.2734H52.1172ZM40.9746 1.78125H43.1621V-0.21875H40.9746V1.78125ZM42.2257 1.13228L46.3371 12.0991L48.2098 11.397L44.0985 0.430218L42.2257 1.13228ZM48.2101 12.0983L52.3116 1.13155L50.4384 0.430949L46.3368 11.3977L48.2101 12.0983ZM51.375 1.78125H53.5625V-0.21875H51.375V1.78125ZM52.6283 0.424508L47.1986 14.6433L49.067 15.3567L54.4967 1.13799L52.6283 0.424508ZM48.1328 14H46.3945V16H48.1328V14ZM47.3289 14.6438L41.909 0.425068L40.0402 1.13743L45.4601 15.3562L47.3289 14.6438ZM39.9785 1.78125H42.0586V-0.21875H39.9785V1.78125ZM41.0593 0.819288L41.4206 10.3115L43.4192 10.2354L43.0579 0.743212L41.0593 0.819288ZM41.4199 10.2734V15H43.4199V10.2734H41.4199ZM42.4199 14H39.9785V16H42.4199V14ZM40.9785 15V0.78125H38.9785V15H40.9785ZM52.4785 1.78125H54.5684V-0.21875H52.4785V1.78125ZM53.5684 0.78125V15H55.5684V0.78125H53.5684ZM54.5684 14H52.1172V16H54.5684V14ZM53.1172 15V10.2734H51.1172V15H53.1172ZM53.1165 10.3115L53.4778 0.819288L51.4792 0.743212L51.1179 10.2354L53.1165 10.3115ZM59.7832 14.8145L59.3986 15.7376L59.4102 15.7423L59.7832 14.8145ZM58.1816 13.7305L57.4543 14.4168L57.4594 14.4222L58.1816 13.7305ZM58.1914 5.72266L58.9332 6.39332L58.9377 6.38827L58.1914 5.72266ZM65.0078 5.69336L64.228 6.31939C64.2312 6.32341 64.2345 6.32741 64.2378 6.33138L65.0078 5.69336ZM65.8477 7.32422L64.8868 7.60157L64.8896 7.61066L65.8477 7.32422ZM66.1309 10.4199V11.4199C66.6831 11.4199 67.1309 10.9722 67.1309 10.4199H66.1309ZM57.9668 10.4199H56.9668C56.9668 10.9722 57.4145 11.4199 57.9668 11.4199V10.4199ZM57.9668 8.73047V7.73047C57.4145 7.73047 56.9668 8.17818 56.9668 8.73047H57.9668ZM63.8066 8.73047V9.73047C64.3589 9.73047 64.8066 9.28275 64.8066 8.73047H63.8066ZM63.8066 8.54492H64.8066C64.8066 8.53467 64.8065 8.52442 64.8062 8.51417L63.8066 8.54492ZM63.5527 7.35352L62.6254 7.72771C62.6273 7.73234 62.6292 7.73697 62.6311 7.74157L63.5527 7.35352ZM60.5645 6.36719L61.042 7.24584L61.0485 7.24222L60.5645 6.36719ZM59.3438 8.21289L58.3736 7.97034L58.3711 7.98062L59.3438 8.21289ZM59.373 11.3672L58.4183 11.6646C58.4203 11.6709 58.4223 11.6772 58.4244 11.6834L59.373 11.3672ZM60.8379 13.0859L60.4041 13.9869C60.4086 13.9891 60.4132 13.9913 60.4178 13.9934L60.8379 13.0859ZM64.7051 12.0215L65.4008 11.3032C65.197 11.1058 64.919 11.0043 64.636 11.0239C64.353 11.0435 64.0917 11.1823 63.9171 11.4058L64.7051 12.0215ZM65.9453 13.2227L66.7698 13.7885C67.0458 13.3863 66.9914 12.8437 66.641 12.5043L65.9453 13.2227ZM65.0566 14.1797L65.6914 14.9525L65.6995 14.9457L65.0566 14.1797ZM63.7188 14.9121L63.3817 13.9706L63.378 13.972L63.7188 14.9121ZM61.9023 14.1953C61.2302 14.1953 60.653 14.0863 60.1562 13.8866L59.4102 15.7423C60.1765 16.0504 61.012 16.1953 61.9023 16.1953V14.1953ZM60.1678 13.8914C59.6626 13.6809 59.2457 13.3957 58.9038 13.0388L57.4594 14.4222C58.003 14.9897 58.6538 15.4272 59.3986 15.7375L60.1678 13.8914ZM58.9089 13.0441C58.5686 12.6835 58.3022 12.2553 58.1121 11.7485L56.2395 12.4507C56.5181 13.1939 56.9223 13.853 57.4543 14.4168L58.9089 13.0441ZM58.1121 11.7485C57.9232 11.2447 57.8242 10.6908 57.8242 10.0781H55.8242C55.8242 10.9108 55.9596 11.7045 56.2395 12.4507L58.1121 11.7485ZM57.8242 10.0781V9.6875H55.8242V10.0781H57.8242ZM57.8242 9.6875C57.8242 8.95777 57.9304 8.32574 58.1267 7.77948L56.2444 7.10333C55.9589 7.89822 55.8242 8.76359 55.8242 9.6875H57.8242ZM58.1267 7.77948C58.3284 7.21794 58.6003 6.76148 58.9332 6.3933L57.4496 5.05201C56.9231 5.63435 56.5245 6.32373 56.2444 7.10333L58.1267 7.77948ZM58.9377 6.38827C59.2719 6.01356 59.6611 5.73227 60.1125 5.5367L59.3172 3.70158C58.5967 4.01383 57.9703 4.46821 57.4451 5.05704L58.9377 6.38827ZM60.1125 5.5367C60.5642 5.34093 61.0626 5.23828 61.6191 5.23828V3.23828C60.8085 3.23828 60.0373 3.38954 59.3172 3.70158L60.1125 5.5367ZM61.6191 5.23828C62.2632 5.23828 62.7795 5.34651 63.1925 5.53165L64.0106 3.70663C63.2908 3.38396 62.4855 3.23828 61.6191 3.23828V5.23828ZM63.1925 5.53165C63.6214 5.72392 63.9608 5.98652 64.228 6.31939L65.7876 5.06733C65.3127 4.47572 64.7145 4.02217 64.0106 3.70663L63.1925 5.53165ZM64.2378 6.33138C64.5185 6.67012 64.7385 7.08744 64.8869 7.60156L66.8084 7.04688C66.5922 6.29798 66.2524 5.62806 65.7778 5.05534L64.2378 6.33138ZM64.8896 7.61066C65.0466 8.13608 65.1309 8.73461 65.1309 9.41406H67.1309C67.1309 8.57008 67.0263 7.77537 66.8058 7.03778L64.8896 7.61066ZM65.1309 9.41406V10.4199H67.1309V9.41406H65.1309ZM66.1309 9.41992H57.9668V11.4199H66.1309V9.41992ZM58.9668 10.4199V8.73047H56.9668V10.4199H58.9668ZM57.9668 9.73047H63.8066V7.73047H57.9668V9.73047ZM64.8066 8.73047V8.54492H62.8066V8.73047H64.8066ZM64.8062 8.51417C64.7896 7.97452 64.6808 7.45561 64.4744 6.96546L62.6311 7.74157C62.7372 7.99361 62.7977 8.26897 62.8071 8.57568L64.8062 8.51417ZM64.4801 6.97932C64.2629 6.44118 63.9175 5.98903 63.4485 5.64707L62.2702 7.26309C62.4262 7.37685 62.5431 7.52367 62.6254 7.72771L64.4801 6.97932ZM63.4485 5.64707C62.9145 5.25764 62.2696 5.11328 61.6094 5.11328V7.11328C61.9909 7.11328 62.1793 7.19678 62.2702 7.26309L63.4485 5.64707ZM61.6094 5.11328C61.0696 5.11328 60.5513 5.23166 60.0804 5.49215L61.0485 7.24222C61.1896 7.16417 61.3679 7.11328 61.6094 7.11328V5.11328ZM60.0869 5.48856C59.6272 5.73842 59.2566 6.09761 58.9725 6.53755L60.6525 7.6226C60.7721 7.43754 60.9027 7.32148 61.042 7.24581L60.0869 5.48856ZM58.9725 6.53755C58.6994 6.96041 58.5051 7.44443 58.3736 7.97035L60.3139 8.45543C60.4038 8.09593 60.522 7.82475 60.6525 7.6226L58.9725 6.53755ZM58.3711 7.98062C58.2453 8.50735 58.1875 9.0788 58.1875 9.6875H60.1875C60.1875 9.20245 60.2339 8.79082 60.3164 8.44517L58.3711 7.98062ZM58.1875 9.6875V10.0781H60.1875V9.6875H58.1875ZM58.1875 10.0781C58.1875 10.6301 58.2615 11.1611 58.4183 11.6646L60.3278 11.0698C60.2372 10.779 60.1875 10.4506 60.1875 10.0781H58.1875ZM58.4244 11.6834C58.5917 12.1855 58.8403 12.6409 59.1754 13.0378L60.7035 11.7474C60.5438 11.5583 60.4148 11.3302 60.3217 11.051L58.4244 11.6834ZM59.1754 13.0378C59.5153 13.4402 59.928 13.7577 60.4041 13.9869L61.2717 12.1849C61.0447 12.0756 60.8584 11.9309 60.7035 11.7474L59.1754 13.0378ZM60.4178 13.9934C60.9204 14.2261 61.4678 14.3301 62.0391 14.3301V12.3301C61.7119 12.3301 61.4585 12.2713 61.258 12.1785L60.4178 13.9934ZM62.0391 14.3301C62.7426 14.3301 63.4077 14.1876 64.0104 13.8774L63.0951 12.0991C62.8123 12.2447 62.4683 12.3301 62.0391 12.3301V14.3301ZM64.0104 13.8774C64.5896 13.5793 65.0842 13.1606 65.4931 12.6371L63.9171 11.4058C63.675 11.7157 63.4013 11.9415 63.0951 12.0991L64.0104 13.8774ZM64.0094 12.7398L65.2496 13.941L66.641 12.5043L65.4008 11.3032L64.0094 12.7398ZM65.1208 12.6568C64.9524 12.9021 64.7212 13.1557 64.4138 13.4137L65.6995 14.9457C66.1212 14.5917 66.4825 14.2072 66.7698 13.7885L65.1208 12.6568ZM64.4219 13.407C64.161 13.6213 63.8206 13.8135 63.3817 13.9706L64.0558 15.8536C64.6716 15.6331 65.2231 15.337 65.6914 14.9524L64.4219 13.407ZM63.378 13.972C62.9895 14.1128 62.5037 14.1953 61.9023 14.1953V16.1953C62.6812 16.1953 63.4063 16.089 64.0595 15.8522L63.378 13.972ZM72.8105 4.43359H73.8105C73.8105 3.88131 73.3628 3.43359 72.8105 3.43359V4.43359ZM72.8105 6.15234V7.15234C73.3628 7.15234 73.8105 6.70463 73.8105 6.15234H72.8105ZM66.8535 6.15234H65.8535C65.8535 6.70463 66.3012 7.15234 66.8535 7.15234V6.15234ZM66.8535 4.43359V3.43359C66.3012 3.43359 65.8535 3.88131 65.8535 4.43359H66.8535ZM68.5723 1.8457V0.845703C68.02 0.845703 67.5723 1.29342 67.5723 1.8457H68.5723ZM70.9258 1.8457H71.9258C71.9258 1.29342 71.4781 0.845703 70.9258 0.845703V1.8457ZM71.0625 12.832L70.1747 13.2923C70.1816 13.3056 70.1888 13.3188 70.1963 13.3318L71.0625 12.832ZM72.8887 13.1738L73.8887 13.1684C73.887 12.8674 73.7499 12.5831 73.5152 12.3945C73.2806 12.2058 72.9735 12.1329 72.6791 12.196L72.8887 13.1738ZM72.8984 14.9707L73.1858 15.9285C73.6107 15.8011 73.9008 15.4089 73.8984 14.9653L72.8984 14.9707ZM72.2148 15.127L72.0425 14.1419L72.0382 14.1427L72.2148 15.127ZM69.9004 14.9121L69.4759 15.8176L69.4877 15.823L69.9004 14.9121ZM71.8105 4.43359V6.15234H73.8105V4.43359H71.8105ZM72.8105 5.15234H66.8535V7.15234H72.8105V5.15234ZM67.8535 6.15234V4.43359H65.8535V6.15234H67.8535ZM66.8535 5.43359H72.8105V3.43359H66.8535V5.43359ZM68.5723 2.8457H70.9258V0.845703H68.5723V2.8457ZM69.9258 1.8457V12.0801H71.9258V1.8457H69.9258ZM69.9258 12.0801C69.9258 12.4745 69.977 12.9109 70.1747 13.2923L71.9503 12.3717C71.9615 12.3935 71.9536 12.3871 71.9438 12.3333C71.9342 12.2806 71.9258 12.1985 71.9258 12.0801H69.9258ZM70.1963 13.3318C70.4024 13.689 70.7177 13.9741 71.1358 14.1188L71.79 12.2288C71.8208 12.2395 71.8549 12.2581 71.8851 12.2839C71.9143 12.3088 71.927 12.3294 71.9287 12.3323L70.1963 13.3318ZM71.1358 14.1188C71.4345 14.2222 71.7482 14.2617 72.0586 14.2617V12.2617C71.9132 12.2617 71.8299 12.2426 71.79 12.2288L71.1358 14.1188ZM72.0586 14.2617C72.2613 14.2617 72.4609 14.2496 72.6567 14.224L72.398 12.2408C72.2943 12.2543 72.1814 12.2617 72.0586 12.2617V14.2617ZM72.6567 14.224C72.8191 14.2028 72.9694 14.1792 73.0982 14.1516L72.6791 12.196C72.6256 12.2075 72.5351 12.2229 72.398 12.2408L72.6567 14.224ZM71.8887 13.1793L71.8985 14.9761L73.8984 14.9653L73.8887 13.1684L71.8887 13.1793ZM72.6111 14.0129C72.4627 14.0574 72.2748 14.1013 72.0425 14.1419L72.3872 16.112C72.6758 16.0615 72.9436 16.0012 73.1858 15.9285L72.6111 14.0129ZM72.0382 14.1427C71.8564 14.1753 71.6246 14.1953 71.3359 14.1953V16.1953C71.7113 16.1953 72.0655 16.1697 72.3915 16.1112L72.0382 14.1427ZM71.3359 14.1953C70.9124 14.1953 70.5788 14.1216 70.3131 14.0013L69.4877 15.823C70.0554 16.0802 70.6787 16.1953 71.3359 16.1953V14.1953ZM70.3248 14.0067C70.1179 13.9097 69.9456 13.7536 69.8047 13.4915L68.0429 14.4382C68.3708 15.0484 68.8495 15.5239 69.476 15.8176L70.3248 14.0067ZM69.8047 13.4915C69.6762 13.2524 69.5723 12.8546 69.5723 12.2266H67.5723C67.5723 13.0438 67.7027 13.8049 68.0429 14.4382L69.8047 13.4915ZM69.5723 12.2266V1.8457H67.5723V12.2266H69.5723ZM79.7539 6.23047L79.2736 7.10761L79.2823 7.11225L79.7539 6.23047ZM76.834 7.48047V8.48047C77.3863 8.48047 77.834 8.03275 77.834 7.48047H76.834ZM74.4902 7.48047H73.4902C73.4902 8.03275 73.9379 8.48047 74.4902 8.48047V7.48047ZM75.6719 5.22461L75.0488 4.44245L75.6719 5.22461ZM80.9551 4.63867L80.5553 5.55528L80.5588 5.55681L80.9551 4.63867ZM82.4102 5.84961L81.5719 6.39501L81.5797 6.40664L82.4102 5.84961ZM83.0449 13.8574L82.059 14.0245C82.0601 14.0309 82.0612 14.0374 82.0624 14.0438L83.0449 13.8574ZM83.3477 14.8438H84.3477C84.3477 14.6981 84.3158 14.5541 84.2544 14.422L83.3477 14.8438ZM83.3477 15V16C83.8999 16 84.3477 15.5523 84.3477 15H83.3477ZM80.9355 15L80.0189 15.3996C80.1778 15.7642 80.5378 16 80.9355 16V15ZM80.6719 14.0332L79.6826 14.1792C79.6835 14.1853 79.6845 14.1915 79.6855 14.1976L80.6719 14.0332ZM80.9258 8.57422L81.9257 8.5608C81.9183 8.0138 81.4728 7.57422 80.9258 7.57422V8.57422ZM80.9453 10.0293V11.0293C81.2129 11.0293 81.4692 10.9221 81.6571 10.7316C81.8451 10.5412 81.9488 10.2834 81.9452 10.0159L80.9453 10.0293ZM78.1035 10.1562L78.3326 11.1297C78.3386 11.1283 78.3445 11.1268 78.3505 11.1253L78.1035 10.1562ZM76.8047 12.5977L75.9305 13.0833L75.9364 13.0938L76.8047 12.5977ZM77.3711 13.1348L76.9053 14.0197L76.9148 14.0246L77.3711 13.1348ZM79.5488 13.0371L80.0277 13.915L80.0331 13.912L79.5488 13.0371ZM80.4082 12.3047L81.217 12.8929L81.2232 12.8842L80.4082 12.3047ZM80.7402 11.4746L81.5483 10.8855C81.2987 10.5431 80.8604 10.3952 80.4543 10.5164C80.0482 10.6375 79.7626 11.0015 79.7415 11.4247L80.7402 11.4746ZM81.502 12.5195L82.4617 12.8004C82.5489 12.5026 82.4928 12.1812 82.31 11.9305L81.502 12.5195ZM80.3594 14.2578L81.0336 14.9963L81.0344 14.9956L80.3594 14.2578ZM79.2754 14.9316L78.8918 14.0081L78.8867 14.0103L79.2754 14.9316ZM75.9844 14.7852L75.5243 15.6731L75.5329 15.6774L75.9844 14.7852ZM74.7148 13.6621L73.874 14.2035L73.8775 14.2087L74.7148 13.6621ZM74.5684 10.5664L73.6713 10.1245L73.6685 10.1301L74.5684 10.5664ZM75.5059 9.47266L74.9307 8.6546L74.9246 8.65892L75.5059 9.47266ZM77.0293 8.80859L77.2718 9.77879L77.2817 9.77621L77.0293 8.80859ZM81.584 12.8809V7.8418H79.584V12.8809H81.584ZM81.584 7.8418C81.584 7.34475 81.4939 6.85914 81.2733 6.41802L79.4845 7.31245C79.5374 7.41821 79.584 7.58363 79.584 7.8418H81.584ZM81.2733 6.41802C81.0403 5.95202 80.6805 5.59204 80.2256 5.34868L79.2823 7.11225C79.3872 7.16838 79.444 7.23157 79.4845 7.31245L81.2733 6.41802ZM80.2342 5.35337C79.7723 5.1004 79.249 5.00586 78.7188 5.00586V7.00586C79.0219 7.00586 79.1887 7.06106 79.2736 7.10757L80.2342 5.35337ZM78.7188 5.00586C78.2236 5.00586 77.7411 5.0897 77.3009 5.29445L78.1444 7.10789C78.2641 7.05223 78.4457 7.00586 78.7188 7.00586V5.00586ZM77.3009 5.29445C76.8851 5.48785 76.5217 5.76891 76.2514 6.15183L77.8853 7.3052C77.9275 7.24542 78.0003 7.17491 78.1444 7.10789L77.3009 5.29445ZM76.2514 6.15183C75.9719 6.54778 75.834 7.00132 75.834 7.48047H77.834C77.834 7.39972 77.8523 7.35196 77.8853 7.3052L76.2514 6.15183ZM76.834 6.48047H74.4902V8.48047H76.834V6.48047ZM75.4902 7.48047C75.4902 7.23237 75.5487 6.98535 75.6814 6.72855L73.9045 5.81051C73.6336 6.33497 73.4902 6.89524 73.4902 7.48047H75.4902ZM75.6814 6.72855C75.8113 6.47704 76.0081 6.23526 76.295 6.00677L75.0488 4.44245C74.5674 4.82594 74.1782 5.28077 73.9045 5.81051L75.6814 6.72855ZM76.295 6.00677C76.574 5.78446 76.9242 5.59579 77.3616 5.45179L76.7361 3.55212C76.1057 3.75968 75.538 4.05278 75.0488 4.44245L76.295 6.00677ZM77.3616 5.45179C77.7781 5.31464 78.2691 5.23828 78.8457 5.23828V3.23828C78.0942 3.23828 77.3873 3.3377 76.7361 3.55212L77.3616 5.45179ZM78.8457 5.23828C79.5281 5.23828 80.091 5.35276 80.5553 5.55528L81.3549 3.72207C80.5952 3.39073 79.7519 3.23828 78.8457 3.23828V5.23828ZM80.5588 5.55681C81.0051 5.74941 81.3328 6.02732 81.5719 6.39495L83.2484 5.30427C82.7844 4.59116 82.1421 4.06179 81.3513 3.72053L80.5588 5.55681ZM81.5797 6.40664C81.802 6.73808 81.9473 7.20162 81.9473 7.86133H83.9473C83.9473 6.90646 83.7345 6.02884 83.2406 5.29257L81.5797 6.40664ZM81.9473 7.86133V12.5586H83.9473V7.86133H81.9473ZM81.9473 12.5586C81.9473 13.0838 81.9826 13.5741 82.059 14.0245L84.0309 13.6903C83.977 13.3725 83.9473 12.9969 83.9473 12.5586H81.9473ZM82.0624 14.0438C82.1459 14.4837 82.2685 14.8949 82.4409 15.2655L84.2544 14.422C84.1663 14.2328 84.0872 13.9863 84.0274 13.6711L82.0624 14.0438ZM82.3477 14.8438V15H84.3477V14.8438H82.3477ZM83.3477 14H80.9355V16H83.3477V14ZM81.8522 14.6004C81.7851 14.4463 81.7151 14.21 81.6583 13.8688L79.6855 14.1976C79.7588 14.6377 79.8647 15.0459 80.0189 15.3996L81.8522 14.6004ZM81.6612 13.8872C81.6091 13.5345 81.584 13.1993 81.584 12.8809H79.584C79.584 13.3046 79.6174 13.7376 79.6826 14.1792L81.6612 13.8872ZM79.9259 8.58764L79.9454 10.0427L81.9452 10.0159L81.9257 8.5608L79.9259 8.58764ZM80.9453 9.0293H79.2559V11.0293H80.9453V9.0293ZM79.2559 9.0293C78.7578 9.0293 78.2877 9.07732 77.8565 9.18724L78.3505 11.1253C78.5834 11.0659 78.8815 11.0293 79.2559 11.0293V9.0293ZM77.8745 9.18283C77.4487 9.28301 77.0462 9.4442 76.6968 9.69084L77.8501 11.3248C77.9434 11.2589 78.0943 11.1857 78.3326 11.1297L77.8745 9.18283ZM76.6968 9.69084C76.3537 9.93302 76.0723 10.2444 75.881 10.627L77.6698 11.5214C77.6999 11.4613 77.7505 11.3951 77.8501 11.3248L76.6968 9.69084ZM75.881 10.627C75.6922 11.0045 75.6094 11.4115 75.6094 11.8262H77.6094C77.6094 11.681 77.6372 11.5867 77.6698 11.5214L75.881 10.627ZM75.6094 11.8262C75.6094 12.2683 75.7141 12.6937 75.9305 13.0833L77.6788 12.112C77.6349 12.0329 77.6094 11.944 77.6094 11.8262H75.6094ZM75.9364 13.0938C76.1673 13.4978 76.501 13.8069 76.9053 14.0197L77.8368 12.2498C77.7464 12.2022 77.7025 12.1532 77.6729 12.1015L75.9364 13.0938ZM76.9148 14.0246C77.3413 14.2433 77.8118 14.3301 78.2891 14.3301V12.3301C78.0501 12.3301 77.9087 12.2866 77.8274 12.2449L76.9148 14.0246ZM78.2891 14.3301C78.9078 14.3301 79.4982 14.2038 80.0277 13.915L79.07 12.1592C78.8833 12.261 78.6339 12.3301 78.2891 12.3301V14.3301ZM80.0331 13.912C80.5032 13.6518 80.9088 13.3165 81.2169 12.8929L79.5995 11.7165C79.4909 11.8658 79.3237 12.0188 79.0645 12.1622L80.0331 13.912ZM81.2232 12.8842C81.5016 12.4926 81.7135 12.0347 81.739 11.5245L79.7415 11.4247C79.7409 11.4353 79.7314 11.5308 79.5932 11.7252L81.2232 12.8842ZM79.9322 12.0637L80.6939 13.1086L82.31 11.9305L81.5483 10.8855L79.9322 12.0637ZM80.5422 12.2386C80.4953 12.3988 80.4053 12.603 80.2505 12.8538L81.9526 13.904C82.1755 13.5428 82.3523 13.1741 82.4617 12.8004L80.5422 12.2386ZM80.2505 12.8538C80.1171 13.0701 79.9323 13.2931 79.6844 13.52L81.0344 14.9956C81.3984 14.6626 81.7085 14.2997 81.9526 13.904L80.2505 12.8538ZM79.6851 13.5193C79.4814 13.7053 79.2218 13.871 78.8918 14.0081L79.659 15.8551C80.1753 15.6407 80.6384 15.3572 81.0336 14.9963L79.6851 13.5193ZM78.8867 14.0103C78.6159 14.1245 78.2707 14.1953 77.8301 14.1953V16.1953C78.4832 16.1953 79.1015 16.0903 79.6641 15.853L78.8867 14.0103ZM77.8301 14.1953C77.2748 14.1953 76.8179 14.0862 76.4359 13.8929L75.5329 15.6774C76.2316 16.031 77.0051 16.1953 77.8301 16.1953V14.1953ZM76.4444 13.8972C76.0434 13.6895 75.7558 13.4274 75.5522 13.1155L73.8775 14.2087C74.2858 14.8343 74.8446 15.3209 75.5244 15.6731L76.4444 13.8972ZM75.5556 13.1208C75.3599 12.8167 75.2559 12.4698 75.2559 12.0508H73.2559C73.2559 12.8297 73.4578 13.557 73.874 14.2034L75.5556 13.1208ZM75.2559 12.0508C75.2559 11.6161 75.3362 11.2748 75.4682 11.0027L73.6685 10.1301C73.3838 10.7174 73.2559 11.3657 73.2559 12.0508H75.2559ZM75.4654 11.0083C75.6046 10.7257 75.8062 10.487 76.0871 10.2864L74.9246 8.65892C74.3852 9.04423 73.9618 9.53469 73.6713 10.1246L75.4654 11.0083ZM76.081 10.2907C76.3783 10.0817 76.7676 9.9048 77.2718 9.77874L76.7868 7.83845C76.0931 8.01187 75.4668 8.27769 74.9307 8.65463L76.081 10.2907ZM77.2817 9.77621C77.7813 9.64589 78.3775 9.57422 79.0801 9.57422V7.57422C78.2462 7.57422 77.4752 7.6588 76.7769 7.84098L77.2817 9.77621ZM79.0801 9.57422H80.9258V7.57422H79.0801V9.57422Z" fill="url(#paint0_linear_10_393)" mask="url(#path-1-outside-1_10_393)"/>
<defs>
<linearGradient id="paint0_linear_10_393" x1="42" y1="-16.3934" x2="39.9849" y2="26.4327" gradientUnits="userSpaceOnUse">
<stop offset="0.330361" stop-color="#921717"/>
<stop offset="0.51983" stop-color="#D81B1B"/>
<stop offset="0.73797" stop-color="#FF0000" stop-opacity="0.82"/>
<stop offset="0.902343" stop-color="#FF0000" stop-opacity="0.31"/>
</linearGradient>
</defs>
</svg>
